<?xml version="1.0" encoding="UTF-8"?>
<svg width="20px" height="20px" viewBox="0 0 20 20" version="1.1" xmlns="http://www.w3.org/2000/svg" xmlns:xlink="http://www.w3.org/1999/xlink">
    <!-- Generator: Sketch 43.2 (39069) - http://www.bohemiancoding.com/sketch -->
    <title>Icon Copy</title>
    <desc>Created with Sketch.</desc>
    <defs></defs>
    <g id="Page-1" stroke="none" stroke-width="1" fill="none" fill-rule="evenodd">
        <path d="M0,6.66666667 L0,13.3333333 L4.44444444,13.3333333 L10,18.8888889 L10,1.11111111 L4.44444444,6.66666667 L0,6.66666667 L0,6.66666667 Z M15.5555556,10 C15.5555556,8.0510697 14.1955556,6.37267081 12.2222222,5.55555556 L12.2222222,14.4444444 C14.1955556,13.6383713 15.5555556,11.9599724 15.5555556,10 L15.5555556,10 Z M12.2222222,0 L12.2222222,2.22222222 C15.4333333,3.3295325 17.7777778,6.38540479 17.7777778,10 C17.7777778,13.6145952 15.4333333,16.6704675 12.2222222,17.7777778 L12.2222222,20 C16.6777778,18.9623717 20,14.8802737 20,10 C20,5.11972634 16.6777778,1.03762828 12.2222222,0 L12.2222222,0 Z" id="Icon-Copy" fill="#000000"></path>
    </g>
</svg>